<svg width="786" height="210" viewBox="0 0 786 210" fill="none" xmlns="http://www.w3.org/2000/svg">
<path fill-rule="evenodd" clip-rule="evenodd" d="M63.5229 0.0273438C71.4821 0.0273438 78.8405 2.20485 85.5983 6.55985C92.356 10.7647 97.7622 16.5463 101.817 23.9048C105.872 31.2632 107.899 39.5227 107.899 48.6832C107.899 57.8437 105.872 66.1783 101.817 73.6869C97.7622 81.0454 92.356 86.9772 85.5983 91.4824C78.8405 95.8373 71.4821 98.0148 63.5229 98.0148H21.8501V146.22C21.8501 149.524 20.7989 152.302 18.6965 154.555C16.7442 156.657 14.1162 157.708 10.8124 157.708C7.65879 157.708 5.03078 156.657 2.92836 154.555C0.976121 152.302 0 149.524 0 146.22V11.5155C0 8.21175 1.12629 5.50864 3.37888 3.40622C5.63147 1.15364 8.33457 0.0273438 11.4882 0.0273438H63.5229ZM63.5229 76.39C67.4274 76.39 70.9565 75.1136 74.1101 72.5606C77.4139 70.0077 80.0419 66.6288 81.9941 62.424C84.0965 58.2192 85.1478 53.6389 85.1478 48.6832C85.1478 43.7275 84.0965 39.2223 81.9941 35.1677C80.0419 31.113 77.4139 27.8843 74.1101 25.4816C70.9565 22.9286 67.4274 21.6522 63.5229 21.6522H21.8501V76.39H63.5229ZM217.758 39.2223C220.912 39.2223 223.54 40.3486 225.642 42.6012C227.895 44.7036 229.021 47.4067 229.021 50.7105V109.954C229.021 111.523 228.977 113.059 228.889 114.561C229.206 115.602 229.377 116.707 229.377 117.851V148.893C229.377 149.566 229.832 150.155 230.484 150.325C236.528 151.896 236.927 160.326 231.058 162.461L229.57 163.002C223.875 165.073 217.511 164.026 212.779 160.24L207.805 156.261C207.18 155.761 206.816 155.004 206.816 154.204V153.516C199.264 157.662 189.997 159.736 179.014 159.736C163.246 159.736 151.007 155.381 142.297 146.671C133.737 137.811 129.457 125.571 129.457 109.954V50.7105C129.457 47.4067 130.508 44.7036 132.61 42.6012C134.713 40.3486 137.416 39.2223 140.72 39.2223C143.873 39.2223 146.501 40.3486 148.604 42.6012C150.856 44.7036 151.983 47.4067 151.983 50.7105V109.954C151.983 119.715 154.235 126.998 158.74 131.804C163.396 136.609 170.154 139.012 179.014 139.012C188.024 139.012 194.857 136.609 199.512 131.804C204.168 126.998 206.495 119.715 206.495 109.954V50.7105C206.495 47.4067 207.546 44.7036 209.649 42.6012C211.751 40.3486 214.454 39.2223 217.758 39.2223ZM256.515 40.5739H268.904V22.7785C268.904 19.4747 269.955 16.7716 272.058 14.6692C274.31 12.4166 277.014 11.2903 280.167 11.2903C283.471 11.2903 286.174 12.4166 288.276 14.6692C290.379 16.7716 291.43 19.4747 291.43 22.7785V40.5739H309.451C312.454 40.5739 314.932 41.6251 316.884 43.7275C318.987 45.6798 320.038 48.1576 320.038 51.1611C320.038 54.0143 318.987 56.4171 316.884 58.3693C314.932 60.3216 312.454 61.2977 309.451 61.2977H291.43V127.298C291.43 130.002 291.881 132.179 292.782 133.831C293.683 135.483 294.884 136.609 296.386 137.21C298.038 137.811 299.69 138.111 301.341 138.111C302.993 138.111 304.42 137.811 305.621 137.21C306.973 136.609 308.55 136.309 310.352 136.309C312.154 136.309 313.806 137.135 315.308 138.787C316.809 140.439 317.56 142.691 317.56 145.544C317.56 149.149 315.608 152.077 311.703 154.329C307.799 156.582 303.594 157.708 299.089 157.708C296.536 157.708 293.533 157.483 290.079 157.033C286.625 156.582 283.246 155.456 279.942 153.654C276.788 151.852 274.16 148.998 272.058 145.094C269.955 141.039 268.904 135.408 268.904 128.2V61.2977H256.515C253.512 61.2977 250.959 60.3216 248.856 58.3693C246.904 56.2669 245.928 53.7891 245.928 50.9358C245.928 47.9323 246.904 45.4545 248.856 43.5023C250.959 41.55 253.512 40.5739 256.515 40.5739ZM357.148 157.708C353.543 157.708 350.615 156.657 348.362 154.555C346.26 152.302 345.209 149.524 345.209 146.22V11.5155C345.209 8.21175 346.335 5.50864 348.588 3.40622C350.84 1.15364 353.543 0.0273438 356.697 0.0273438H432.834C436.138 0.0273438 438.841 1.07855 440.944 3.18096C443.196 5.28338 444.323 7.9114 444.323 11.065C444.323 13.9183 443.196 16.3961 440.944 18.4986C438.841 20.601 436.138 21.6522 432.834 21.6522H368.636V66.9292H422.698C426.002 66.9292 428.705 67.9804 430.807 70.0828C433.06 72.1852 434.186 74.8132 434.186 77.9668C434.186 80.8201 433.06 83.298 430.807 85.4004C428.705 87.5028 426.002 88.554 422.698 88.554H368.636V146.22C368.636 149.524 367.509 152.302 365.257 154.555C363.004 156.657 360.301 157.708 357.148 157.708ZM552.408 39.2223C555.562 39.2223 558.19 40.3486 560.292 42.6012C562.545 44.7036 563.671 47.4067 563.671 50.7105V109.954C563.671 125.571 559.316 137.811 550.606 146.671C541.896 155.381 529.582 159.736 513.664 159.736C497.895 159.736 485.656 155.381 476.946 146.671C468.387 137.811 464.107 125.571 464.107 109.954V50.7105C464.107 47.4067 465.158 44.7036 467.26 42.6012C469.363 40.3486 472.066 39.2223 475.37 39.2223C478.523 39.2223 481.151 40.3486 483.254 42.6012C485.506 44.7036 486.633 47.4067 486.633 50.7105V109.954C486.633 119.715 488.885 126.998 493.39 131.804C498.046 136.609 504.803 139.012 513.664 139.012C522.674 139.012 529.507 136.609 534.162 131.804C538.817 126.998 541.145 119.715 541.145 109.954V50.7105C541.145 47.4067 542.196 44.7036 544.299 42.6012C546.401 40.3486 549.104 39.2223 552.408 39.2223ZM604.005 157.708C600.701 157.708 597.998 156.657 595.895 154.555C593.793 152.302 592.742 149.524 592.742 146.22V50.7105C592.742 47.4067 593.793 44.7036 595.895 42.6012C597.998 40.3486 600.701 39.2223 604.005 39.2223C607.158 39.2223 609.786 40.3486 611.889 42.6012C614.141 44.7036 615.267 47.4067 615.267 50.7105V60.1714C616.168 58.2192 617.22 56.342 618.421 54.5399C620.974 50.9358 623.977 47.7822 627.431 45.0791C630.885 42.376 634.715 40.2736 638.92 38.7718C643.275 37.2701 647.78 36.5192 652.435 36.5192C656.34 36.5192 659.719 37.5704 662.572 39.6729C665.425 41.7753 666.852 44.4033 666.852 47.5569C666.852 51.6116 665.8 54.615 663.698 56.5673C661.596 58.3693 659.268 59.2704 656.715 59.2704C654.462 59.2704 652.285 58.8198 650.183 57.9188C648.08 56.8676 645.602 56.342 642.749 56.342C639.595 56.342 636.367 57.1679 633.063 58.8198C629.759 60.4717 626.756 62.9496 624.053 66.2534C621.349 69.407 619.172 73.1613 617.52 77.5163C616.018 81.8713 615.267 86.7519 615.267 92.1581V146.22C615.267 149.524 614.141 152.302 611.889 154.555C609.786 156.657 607.158 157.708 604.005 157.708ZM734.769 159.961C722.305 159.961 711.492 157.408 702.332 152.302C693.171 147.046 686.038 139.913 680.932 130.903C675.976 121.742 673.499 111.305 673.499 99.5917C673.499 86.3765 676.127 75.1136 681.383 65.8029C686.789 56.342 693.772 49.1337 702.332 44.178C710.892 39.0722 719.977 36.5192 729.588 36.5192C736.946 36.5192 743.93 38.021 750.537 41.0244C757.145 43.8777 763.001 47.9323 768.107 53.1884C773.363 58.2942 777.493 64.3762 780.496 71.4343C783.5 78.3423 785.077 85.926 785.227 94.1855C785.077 97.1889 783.875 99.6667 781.623 101.619C779.37 103.571 776.742 104.547 773.739 104.547H695.483C696.153 110.224 697.76 115.329 700.304 119.865C703.758 126.022 708.414 130.828 714.27 134.281C720.127 137.585 726.585 139.237 733.643 139.237C739.199 139.237 743.779 138.712 747.383 137.66C750.988 136.459 753.991 135.032 756.394 133.38C758.797 131.729 760.899 130.152 762.701 128.65C764.954 127.298 767.206 126.623 769.459 126.623C772.162 126.623 774.414 127.599 776.217 129.551C778.019 131.353 778.92 133.531 778.92 136.084C778.92 139.387 777.268 142.391 773.964 145.094C769.909 148.998 764.278 152.452 757.07 155.456C750.011 158.459 742.578 159.961 734.769 159.961ZM697.827 79.0931C697.148 81.0147 696.598 83.1171 696.175 85.4004H761.124V83.8236C760.824 78.5675 759.097 73.9873 755.943 70.0828C752.79 66.0281 748.885 62.9496 744.23 60.8472C739.574 58.5946 734.694 57.4683 729.588 57.4683C725.083 57.4683 720.728 58.2192 716.523 59.7209C712.468 61.0724 708.789 63.325 705.485 66.4786C702.332 69.6323 699.779 73.8371 697.827 79.0931ZM529.6 172.171C530.813 170.499 531.896 168.766 532.847 166.984C544.912 163.074 554.884 155.372 561.851 145.473C562.416 146.762 562.706 148.205 562.643 149.761C562.153 161.952 557.988 173.879 550.471 184.241C542.444 195.307 531.029 203.989 517.686 209.317C512.191 211.512 506.262 208.191 504.446 202.559C502.467 196.426 506.153 189.99 511.901 187.076C519.006 183.475 525.095 178.381 529.6 172.171Z" fill="#023A75"/>
</svg>
