<svg width="189" height="277" viewBox="0 0 189 277" fill="none" xmlns="http://www.w3.org/2000/svg">
<path d="M127.502 242.184C127.502 189.206 54.9449 196.79 51.4893 106.946C29.1884 133.714 51.7657 206.673 61.5477 222.235C47.337 212.407 29.0089 185.448 27.2915 145.429C29.3482 105.102 42.6165 96.0935 49.3255 84.38C65.5276 56.092 55.0357 53.0377 54.9023 49.5842C21.0155 92.2509 2.77686 128.919 0.720088 169.245C-2.45232 231.445 47.7572 276.685 84.3917 276.685C109.53 276.685 127.502 259.54 127.502 242.184Z" fill="url(#paint0_linear_2141_218)"/>
<path fill-rule="evenodd" clip-rule="evenodd" d="M179.347 207.156C179.347 207.156 188.791 180.572 188.413 162.955C187.584 124.425 158.834 98.3261 136.494 78.0468C135.081 76.7645 133.694 75.5055 132.342 74.2681C95.7689 40.8104 102.715 33.9112 102.715 33.9112C102.715 33.9112 109.253 58.9444 145.48 66.8464C124.616 50.6273 117.423 36.0793 111.833 24.7746C104.453 9.84896 99.8687 0.576912 70.3088 0.576915C70.672 1.50496 71.1627 2.6479 71.7333 3.9772C74.8952 11.3424 80.513 24.4283 80.513 38.3786C80.513 56.67 75.3477 69.4963 70.4414 81.6796C66.0034 92.6999 61.7773 103.194 61.7773 116.731C61.7773 147.593 84.5128 169.544 104.604 188.942C119.595 203.416 133.115 216.469 134.617 230.741C137.054 253.883 119.671 273.773 112.017 275.621C131.019 273.773 166.56 246.079 169.528 216.408C169.528 194.233 157.785 181.372 147.154 169.73C135.026 156.446 124.344 144.748 134.202 122.61C130.821 143.799 141.252 152.826 152.991 162.983C164.264 172.739 176.743 183.537 179.347 207.156ZM95.4805 14.039C94.0688 10.4416 92.797 7.2008 81.7961 7.40864C83.6208 9.74827 86.6153 11.1755 89.6098 12.6028C92.6044 14.0301 95.599 15.4575 97.4238 17.7973C96.481 16.5884 95.9723 15.2921 95.4805 14.039Z" fill="url(#paint1_linear_2141_218)"/>
<defs>
<linearGradient id="paint0_linear_2141_218" x1="123.902" y1="102.664" x2="-20.9122" y2="146.612" gradientUnits="userSpaceOnUse">
<stop stop-color="#7B3985"/>
<stop offset="1" stop-color="#C32C62"/>
</linearGradient>
<linearGradient id="paint1_linear_2141_218" x1="167.94" y1="101.593" x2="69.6483" y2="120.526" gradientUnits="userSpaceOnUse">
<stop stop-color="#7B3985"/>
<stop offset="1" stop-color="#C32C62"/>
</linearGradient>
</defs>
</svg>
